<svg width="19" height="20" viewBox="0 0 19 20" fill="none" xmlns="http://www.w3.org/2000/svg">
<path d="M17.86 3.79068H15.5005C14.9148 3.79068 14.44 3.3159 14.44 2.73022C14.4375 2.07468 14.1564 1.44665 13.6581 0.983111C13.1598 0.519572 12.4847 0.258127 11.78 0.255798H7.22C6.51529 0.258127 5.84017 0.519572 5.34186 0.983111C4.84356 1.44665 4.5625 2.07468 4.56 2.73022C4.56 3.3159 4.08521 3.79068 3.49954 3.79068H1.14C0.837653 3.79068 0.54769 3.90241 0.333898 4.10128C0.120107 4.30016 0 4.56989 0 4.85115C0 5.1324 0.120107 5.40213 0.333898 5.60101C0.54769 5.79988 0.837653 5.91161 1.14 5.91161C1.34987 5.91161 1.52 6.08174 1.52 6.29161V17.9302C1.5225 18.3983 1.72348 18.8465 2.07926 19.1774C2.43504 19.5084 2.91686 19.6953 3.42 19.6977H15.58C16.0831 19.6953 16.565 19.5084 16.9207 19.1774C17.2765 18.8465 17.4775 18.3983 17.48 17.9302V6.29161C17.48 6.08174 17.6501 5.91161 17.86 5.91161C18.1623 5.91161 18.4523 5.79988 18.6661 5.60101C18.8799 5.40213 19 5.1324 19 4.85115C19 4.56989 18.8799 4.30016 18.6661 4.10128C18.4523 3.90241 18.1623 3.79068 17.86 3.79068ZM6.84 2.73022C6.84 2.63647 6.88004 2.54655 6.9513 2.48026C7.02256 2.41397 7.11922 2.37673 7.22 2.37673H11.78C11.8808 2.37673 11.9774 2.41397 12.0487 2.48026C12.12 2.54655 12.16 2.63647 12.16 2.73022C12.16 3.3159 11.6852 3.79068 11.0995 3.79068H7.90046C7.31478 3.79068 6.84 3.3159 6.84 2.73022ZM15.2 12.5767C15.2 15.3382 12.9614 17.5767 10.2 17.5767H8.8C6.03858 17.5767 3.8 15.3382 3.8 12.5767V10.9116C3.8 8.15018 6.03858 5.91161 8.8 5.91161H10.2C12.9614 5.91161 15.2 8.15019 15.2 10.9116V12.5767ZM8.36 8.73952V14.3953C8.36 14.6766 8.23989 14.9463 8.0261 15.1452C7.81231 15.3441 7.52235 15.4558 7.22 15.4558C6.91765 15.4558 6.62769 15.3441 6.4139 15.1452C6.20011 14.9463 6.08 14.6766 6.08 14.3953V8.73952C6.08 8.45827 6.20011 8.18853 6.4139 7.98966C6.62769 7.79078 6.91765 7.67905 7.22 7.67905C7.52235 7.67905 7.81231 7.79078 8.0261 7.98966C8.23989 8.18853 8.36 8.45827 8.36 8.73952ZM12.92 8.73952V14.3953C12.92 14.6766 12.7999 14.9463 12.5861 15.1452C12.3723 15.3441 12.0823 15.4558 11.78 15.4558C11.4777 15.4558 11.1877 15.3441 10.9739 15.1452C10.7601 14.9463 10.64 14.6766 10.64 14.3953V8.73952C10.64 8.45827 10.7601 8.18853 10.9739 7.98966C11.1877 7.79078 11.4777 7.67905 11.78 7.67905C12.0823 7.67905 12.3723 7.79078 12.5861 7.98966C12.7999 8.18853 12.92 8.45827 12.92 8.73952Z" fill="#FF4949"/>
</svg>
