<svg width="19" height="20" viewBox="0 0 19 20" fill="none" xmlns="http://www.w3.org/2000/svg">
<path d="M17.45 17.4177C14.3016 17.4177 12.7061 13.6282 14.9064 11.3763L16.0113 10.2454L18.4524 7.73751C18.6259 7.56252 18.7636 7.35398 18.8576 7.12404C18.9516 6.89409 19 6.64731 19 6.39805C19 6.14879 18.9516 5.90201 18.8576 5.67207C18.7636 5.44212 18.6259 5.23359 18.4524 5.05859L14.3034 0.812217C14.1318 0.635858 13.9278 0.495921 13.7033 0.400436C13.4787 0.304951 13.2379 0.255798 12.9947 0.255798C12.7515 0.255798 12.5107 0.304951 12.2861 0.400436C12.0615 0.495921 11.8575 0.635858 11.6859 0.812217L0.547633 12.2119C0.374186 12.3869 0.236453 12.5954 0.14244 12.8253C0.0484267 13.0553 8.72376e-06 13.3021 0 13.5513V17.7977C0.0024397 18.3008 0.198806 18.7826 0.546417 19.1384C0.894029 19.4942 1.36479 19.6952 1.85638 19.6977H17.45C17.7454 19.6977 18.0287 19.5776 18.2376 19.3638C18.4465 19.15 18.5638 18.86 18.5638 18.5577C18.5638 18.2554 18.4465 17.9654 18.2376 17.7516C18.0287 17.5378 17.7454 17.4177 17.45 17.4177ZM3.5617 13.3682C3.28444 13.0845 3.28444 12.6313 3.5617 12.3475L9.50212 6.26767C9.78862 5.97445 10.2603 5.97445 10.5468 6.26767C10.8241 6.55144 10.8241 7.00465 10.5468 7.28841L4.60638 13.3682C4.31988 13.6615 3.8482 13.6615 3.5617 13.3682ZM12.1011 8.92759C12.3876 8.63437 12.8592 8.63437 13.1457 8.92759C13.423 9.21136 13.423 9.66457 13.1457 9.94833L7.20532 16.0281C6.91882 16.3214 6.44713 16.3214 6.16063 16.0281C5.88337 15.7444 5.88337 15.2912 6.16063 15.0074L12.1011 8.92759ZM12.2824 3.42216C12.6731 3.02231 13.3163 3.02231 13.707 3.42216L15.9346 5.7021C16.3127 6.08905 16.3127 6.70706 15.9346 7.09401C15.5439 7.49386 14.9007 7.49386 14.51 7.09401L12.2824 4.81407C11.9043 4.42712 11.9043 3.80911 12.2824 3.42216ZM2.22766 16.7602C2.22766 16.2023 2.90518 15.9262 3.29508 16.3253L3.31258 16.3432C3.70393 16.7437 3.42015 17.4177 2.86017 17.4177C2.51084 17.4177 2.22766 17.1345 2.22766 16.7852V16.7602Z" fill="#71FFA1"/>
</svg>
