<svg width="25" height="16" viewBox="0 0 25 16" fill="none" xmlns="http://www.w3.org/2000/svg">
<path d="M24.9017 7.22674C24.1685 5.88657 23.1977 4.66439 22.0281 3.6088C19.4167 1.25166 16.1298 0 12.5 0C8.87024 0 5.58328 1.25166 2.97187 3.6088C1.80226 4.66439 0.831533 5.88657 0.0983088 7.22674C0.0334058 7.36867 0 7.52079 0 7.67442C0 7.82805 0.0334058 7.98017 0.0983088 8.12209C0.831533 9.46226 1.80226 10.6844 2.97187 11.74C5.58328 14.0972 8.87024 15.3488 12.5 15.3488C16.1298 15.3488 19.4167 14.0972 22.0281 11.74C23.1977 10.6844 24.1685 9.46226 24.9017 8.12209C24.9666 7.98017 25 7.82805 25 7.67442C25 7.52079 24.9666 7.36867 24.9017 7.22674ZM20.2536 10.2417C18.0959 12.1786 15.4845 13.1561 12.5 13.1561C9.51553 13.1561 6.90411 12.1786 4.74642 10.2417C4.69001 10.1911 4.63411 10.1401 4.57874 10.0886C3.16873 8.77799 3.16509 6.56754 4.57805 5.26011C4.63364 5.20867 4.68977 5.15768 4.74642 5.10714C6.90411 3.17027 9.51553 2.19269 12.5 2.19269C15.4845 2.19269 18.0959 3.17027 20.2536 5.10714C20.3076 5.15557 20.3611 5.20441 20.4142 5.25365C21.8288 6.56659 21.8288 8.78225 20.4142 10.0952C20.3611 10.1444 20.3076 10.1933 20.2536 10.2417ZM12.5 3.65449C11.6226 3.65449 10.7648 3.89025 10.0353 4.33197C9.30572 4.77368 8.7371 5.40151 8.40132 6.13606C8.06554 6.8706 7.97769 7.67888 8.14887 8.45867C8.32005 9.23846 8.74257 9.95474 9.36301 10.5169C9.98345 11.0791 10.7739 11.462 11.6345 11.6171C12.4951 11.7722 13.3871 11.6926 14.1977 11.3884C15.0084 11.0841 15.7012 10.5688 16.1887 9.90777C16.6762 9.2467 16.9364 8.46949 16.9364 7.67442C16.9364 6.60827 16.469 5.58578 15.637 4.8319C14.805 4.07801 13.6766 3.65449 12.5 3.65449ZM12.2034 7.47753C11.8046 7.47753 13.4975 6.85194 13.1658 6.65116C12.9534 6.52257 11.4531 6.5587 10.5784 6.75252C10.3668 6.79943 10.0436 7.08325 10.216 7.21478C10.4085 7.36167 11.6668 8.01769 11.8079 7.82092C11.8529 7.75823 11.8947 7.70801 11.9318 7.67442C12.1112 7.51185 11.907 7.71874 11.8886 7.96014C11.8122 8.96168 12.0396 7.80801 12.3671 7.93096C12.7356 8.06926 11.3756 7.37393 11.5972 7.67442C11.8188 7.97491 14.3432 9.44831 14.7727 8.69767C16.0477 6.89017 11.9748 6.30901 11.5972 6.65116C11.2196 6.99332 12.7374 7.47513 12.2034 7.47753Z" fill="#878787"/>
</svg>
